PathFileType	4	(X/Y/Z)	Walk2.trc
DataRate	CameraRate	NumFrames	NumMarkers	Units	OrigDataRate	OrigDataStartFrame	OrigNumFrames
200.000000	200.000000	6	61	mm	200.000000	468	591
Frame#	Times		RCAR		RTH2		LTH3		LTB1		LWRU		LBHD		LFA1		RTH3		LUA1		LElbow		LCAR		RToe		RPSI		RASI		RTB2		RLFC		RTB3		RTB1		C7		RMT5		LElbowM		RTB4		LTH4		RTH4		LTH1		LTH2		RWRR		RBHD		LWRR		STRN		RFA1		RMT1		RTH1		RMMAL		RLMAL		RBack		T10		LPSI		LASI		CLAV		RElbow		RUA1		RCAL		LLFC		LMFC		LACR1		LTB4		RElbowM		LTB3		LCAL		RFHD		RACR1		LFHD		LMMAL		RMFC		LTB2		LMT5		LLMAL		RWRU		LToe		LMT1
			X1	Y1	Z1	X2	Y2	Z2	X3	Y3	Z3	X4	Y4	Z4	X5	Y5	Z5	X6	Y6	Z6	X7	Y7	Z7	X8	Y8	Z8	X9	Y9	Z9	X10	Y10	Z10	X11	Y11	Z11	X12	Y12	Z12	X13	Y13	Z13	X14	Y14	Z14	X15	Y15	Z15	X16	Y16	Z16	X17	Y17	Z17	X18	Y18	Z18	X19	Y19	Z19	X20	Y20	Z20	X21	Y21	Z21	X22	Y22	Z22	X23	Y23	Z23	X24	Y24	Z24	X25	Y25	Z25	X26	Y26	Z26	X27	Y27	Z27	X28	Y28	Z28	X29	Y29	Z29	X30	Y30	Z30	X31	Y31	Z31	X32	Y32	Z32	X33	Y33	Z33	X34	Y34	Z34	X35	Y35	Z35	X36	Y36	Z36	X37	Y37	Z37	X38	Y38	Z38	X39	Y39	Z39	X40	Y40	Z40	X41	Y41	Z41	X42	Y42	Z42	X43	Y43	Z43	X44	Y44	Z44	X45	Y45	Z45	X46	Y46	Z46	X47	Y47	Z47	X48	Y48	Z48	X49	Y49	Z49	X50	Y50	Z50	X51	Y51	Z51	X52	Y52	Z52	X53	Y53	Z53	X54	Y54	Z54	X55	Y55	Z55	X56	Y56	Z56	X57	Y57	Z57	X58	Y58	Z58	X59	Y59	Z59	X60	Y60	Z60	X61	Y61	Z61

468	2.34	789.41	911.3	309.95	526.41	689.39	185.95	589.3	617.89	-128.21	699.23	406.05	-51.231	396.23	850.04	-208.7	483.61	1635.5	-53.721	374.87	982.71	-226.08	434.54	613.22	206.65	423.92	1285.7	-221.67	371.53	1135.1	-226.74	460.7	801.59	-225.91	460.62	28.768	113.69	340.3	1024.5	99.971	555.81	1037.2	188.42	353.38	273.89	175.48	394.17	497.81	197.1	341.82	189.86	100.32	408.17	363.83	119.95	451.51	1509.8	31.206	355.3	25.303	171.44	351.42	1134.7	-151.3	375.8	276.19	108.79	560.1	705.32	-141.72	462.73	702.73	220.49	532.52	794.25	-149.48	622.8	730.06	-116.59	755.19	941.17	260.3	489.68	1644.6	87.81	474.21	858.55	-179	619.45	1243	19.613	642.19	1017.6	346.88	403.66	37.639	91.244	484.79	796.2	229.29	300.46	99.445	58.507	266.96	79.326	139.27	390.67	1427.2	177.33	339.29	1289.7	47.565	332.52	1015.9	22.62	537.29	1026.2	-99.58	579.14	1417.5	21.135	559.03	1149.6	344.28	555.67	1302.9	289.97	205.53	50.107	90.856	611.43	523.02	-117.18	627.91	527.59	12.798	504.02	1456.7	-143.03	715.46	317.48	-52.602	515.69	1121.3	279.36	732.2	222.64	-56.162	680.93	27.009	-47.815	666.94	1675.2	57.64	545.53	1463.7	180.89	664.46	1671.4	-19.082	747.61	112.77	-19.176	396.32	516.14	65.573	684.49	314.33	-122.24	831.21	57.002	-129.64	719.99	83.549	-97.485	721.5	908.18	321.91	912.1	101.85	-72.685	872.15	82.228	-53.152
469	2.345	796.93	912.58	308.73	530.19	688.76	186.03	593.37	616.25	-128.43	705.87	406.27	-50.525	399.69	849.36	-209.2	488.89	1634.7	-54.248	379.18	982.18	-226.6	437.75	613.18	206.43	429.36	1285	-222.22	376.69	1134.5	-227.19	463.84	800.44	-226.08	460.62	28.697	113.73	345.81	1023.8	99.179	561.16	1036.7	188.16	354.66	274.15	175.4	396.72	497.87	196.92	342.76	190.1	100.3	410.06	363.73	119.87	456.77	1509.1	30.639	355.26	25.3	171.34	356.39	1134.3	-151.83	377.22	276.22	108.71	564.63	703.83	-141.9	466.42	702.49	220.18	537.49	792.91	-149.57	627.28	728.21	-116.27	762.49	942.29	259.17	494.95	1643.9	87.281	477.64	857.38	-179.23	624.95	1242.4	19.234	648.93	1017.6	346.02	403.7	37.593	91.249	489.03	795.79	228.99	300.88	99.928	58.509	267.16	80.007	139.21	395.86	1426.5	176.73	344.61	1288.9	46.845	338.18	1015.1	21.869	543.16	1025.4	-99.86	584.5	1416.9	20.689	564.83	1149	343.84	561.12	1302.3	289.46	205.65	51.058	90.713	616.34	521.96	-116.83	631.57	526.11	13.754	509.54	1456	-143.57	723.62	317.94	-52.041	521.76	1120.6	278.78	741.99	223.33	-55.737	693.82	26.709	-48.333	672.18	1674.5	57.113	550.7	1463.1	180.39	669.72	1670.7	-19.618	758.89	113.57	-18.875	399.26	516.2	65.282	693.18	314.41	-121.89	844.58	59.13	-128.78	732.51	84.074	-97.542	729.09	908.87	320.81	924.33	105.07	-70.817	884.45	84.696	-51.71
470	2.35	804.31	913.8	307.51	534.04	688.13	186.11	597.57	614.65	-128.68	712.41	406.39	-49.84	403.24	848.66	-209.77	494.17	1634	-54.803	383.58	981.62	-227.18	441.07	613.11	206.19	434.86	1284.3	-222.8	381.94	1133.9	-227.7	467.09	799.27	-226.29	460.62	28.626	113.76	351.35	1023.1	98.344	566.53	1036.1	187.9	356	274.42	175.3	399.4	497.92	196.71	343.76	190.36	100.26	412.07	363.61	119.77	462.04	1508.4	30.039	355.21	25.302	171.24	361.42	1133.8	-152.43	378.71	276.26	108.63	569.25	702.36	-142.14	470.18	702.24	219.87	542.51	791.59	-149.71	631.84	726.43	-116.03	769.67	943.36	258.04	500.21	1643.2	86.724	481.16	856.2	-179.48	630.46	1241.8	18.844	655.57	1017.5	345.14	403.76	37.558	91.256	493.32	795.37	228.67	301.34	100.44	58.499	267.39	80.727	139.14	401.05	1425.7	176.09	349.96	1288.1	46.099	343.88	1014.3	21.078	549.08	1024.7	-100.15	589.87	1416.2	20.222	570.57	1148.4	343.38	566.54	1301.8	288.93	205.8	52.068	90.563	621.4	520.95	-116.49	635.45	524.8	14.632	515.05	1455.3	-144.13	731.48	318.3	-51.448	527.78	1119.8	278.16	751.25	223.91	-55.231	705.82	26.422	-48.631	677.42	1673.8	56.56	555.86	1462.4	179.86	674.98	1670.1	-20.179	769.43	114.28	-18.443	402.37	516.25	64.959	701.51	314.44	-121.49	856.96	61.051	-127.85	744.16	84.55	-97.423	736.55	909.51	319.71	935.7	107.93	-69.011	895.89	86.9	-50.274
471	2.355	811.56	914.97	306.31	537.99	687.5	186.21	601.94	613.12	-128.94	718.87	406.41	-49.177	406.9	847.95	-210.39	499.45	1633.3	-55.386	388.09	981.04	-227.82	444.5	613.02	205.95	440.39	1283.5	-223.41	387.28	1133.2	-228.25	470.44	798.09	-226.52	460.63	28.554	113.79	356.92	1022.4	97.468	571.93	1035.5	187.62	357.44	274.7	175.18	402.22	497.95	196.49	344.81	190.64	100.2	414.19	363.46	119.66	467.3	1507.6	29.406	355.18	25.308	171.12	366.48	1133.3	-153.1	380.3	276.28	108.53	573.99	700.94	-142.45	474.03	701.98	219.58	547.59	790.3	-149.92	636.5	724.73	-115.86	776.72	944.38	256.92	505.48	1642.6	86.14	484.76	855	-179.76	635.99	1241.3	18.444	662.11	1017.4	344.25	403.83	37.536	91.265	497.66	794.94	228.35	301.84	100.97	58.479	267.65	81.49	139.05	406.23	1425	175.42	355.33	1287.3	45.329	349.61	1013.4	20.249	555.04	1023.9	-100.44	595.25	1415.6	19.733	576.25	1147.9	342.89	571.93	1301.2	288.38	205.97	53.141	90.41	626.6	519.98	-116.17	639.57	523.67	15.427	520.58	1454.5	-144.72	739.04	318.53	-50.826	533.73	1119	277.52	759.99	224.36	-54.647	716.9	26.121	-48.7	682.67	1673.2	55.98	561.02	1461.8	179.31	680.24	1669.4	-20.766	779.24	114.86	-17.886	405.64	516.27	64.605	709.5	314.37	-121.03	868.32	62.701	-126.86	754.92	84.931	-97.128	743.89	910.12	318.62	946.2	110.39	-67.292	906.45	88.791	-48.862
472	2.36	818.66	916.08	305.11	542.04	686.87	186.32	606.52	611.69	-129.19	725.23	406.31	-48.539	410.65	847.22	-211.06	504.73	1632.6	-55.998	392.69	980.44	-228.52	448.05	612.9	205.69	445.97	1282.7	-224.05	392.69	1132.6	-228.86	473.89	796.91	-226.78	460.65	28.484	113.81	362.52	1021.7	96.553	577.36	1035	187.33	358.96	274.99	175.04	405.2	497.97	196.25	345.93	190.92	100.14	416.43	363.28	119.53	472.56	1506.9	28.739	355.15	25.319	170.99	371.59	1132.8	-153.82	381.98	276.31	108.42	578.87	699.58	-142.83	477.98	701.71	219.3	552.75	789.06	-150.21	641.28	723.17	-115.77	783.65	945.35	255.8	510.75	1641.9	85.526	488.44	853.8	-180.06	641.54	1240.7	18.035	668.54	1017.3	343.36	403.91	37.527	91.278	502.06	794.51	228.01	302.37	101.53	58.449	267.94	82.296	138.96	411.41	1424.2	174.71	360.73	1286.5	44.535	355.36	1012.6	19.381	561.04	1023.2	-100.74	600.63	1415	19.22	581.86	1147.3	342.38	577.28	1300.6	287.81	206.16	54.279	90.26	631.96	519.06	-115.87	643.97	522.73	16.138	526.11	1453.8	-145.34	746.3	318.62	-50.178	539.62	1118.3	276.84	768.21	224.63	-53.991	727.04	25.785	-48.538	687.92	1672.5	55.373	566.18	1461.1	178.74	685.5	1668.7	-21.379	788.31	115.27	-17.21	409.09	516.28	64.226	717.11	314.21	-120.51	878.65	64.029	-125.83	764.79	85.179	-96.662	751.1	910.69	317.51	955.85	112.39	-65.678	916.14	90.322	-47.492
473	2.365	825.63	917.12	303.91	546.19	686.24	186.43	611.34	610.38	-129.42	731.51	406.09	-47.923	414.52	846.48	-211.78	510.01	1631.9	-56.64	397.4	979.83	-229.26	451.73	612.76	205.43	451.58	1281.9	-224.72	398.18	1131.9	-229.5	477.46	795.72	-227.08	460.67	28.417	113.83	368.16	1021	95.604	582.8	1034.4	187.04	360.57	275.28	174.9	408.32	497.96	196	347.1	191.22	100.06	418.8	363.07	119.4	477.81	1506.1	28.038	355.13	25.337	170.86	376.74	1132.2	-154.61	383.75	276.33	108.3	583.92	698.32	-143.26	482.02	701.42	219.02	558.01	787.88	-150.57	646.21	721.76	-115.77	790.46	946.27	254.69	516.02	1641.2	84.883	492.22	852.6	-180.39	647.1	1240.1	17.615	674.87	1017.2	342.45	404.01	37.534	91.297	506.53	794.07	227.68	302.94	102.13	58.413	268.26	83.148	138.86	416.58	1423.5	173.98	366.16	1285.6	43.718	361.15	1011.7	18.478	567.07	1022.4	-101.06	606.03	1414.4	18.683	587.42	1146.7	341.83	582.61	1300	287.21	206.38	55.487	90.117	637.48	518.18	-115.57	648.65	521.96	16.766	531.64	1453.1	-145.99	753.27	318.55	-49.506	545.44	1117.6	276.14	775.91	224.72	-53.267	736.24	25.404	-48.149	693.17	1671.9	54.737	571.32	1460.5	178.15	690.76	1668	-22.018	796.65	115.49	-16.425	412.71	516.25	63.828	724.37	313.92	-119.94	887.96	64.994	-124.76	773.76	85.262	-96.036	758.18	911.21	316.41	964.65	113.88	-64.184	924.96	91.451	-46.178
